# xmcd
#
# Track frame offsets:
#	150
#	23541
#	42111
#	55863
#	71964
#	83191
#	100401
#	113935
#	133509
#	147483
#
# Disc length: 2157 seconds
# Revision: 0
# Processed by: cddbd v1.5.2PL0 Copyright (c) Steve Scherf et al.
# Submitted via: dBpowerAMP V12.0
#
DISCID=8b086b0a
DTITLE=Bobby Bare - Encore [Columbia] (L)
DYEAR=1981
DGENRE=Country
TTITLE0=Numbers
TTITLE1=On a Real Good Night
TTITLE2=Healin'
TTITLE3=The Gambler
TTITLE4=Food Blues
TTITLE5=Willie Jones
TTITLE6=Sleep Tight, Goodnight Man
TTITLE7=Tequila Sheila
TTITLE8=I Can Almost See Houston From Here
TTITLE9=Too Many Nights Alone
EXTD=
EXTT0=
EXTT1=
EXTT2=
EXTT3=
EXTT4=
EXTT5=
EXTT6=
EXTT7=
EXTT8=
EXTT9=
PLAYORDER=
